<svg xmlns="http://www.w3.org/2000/svg" height="84.75pt" viewBox="0 0 115.5 84.75" width="115.5pt"><path fill="#41cd52" d="M15.875 0H115.5v68.698A4060.086 4060.086 0 0 1 99.402 84.75H0V15.848C5.27 10.545 10.585 5.282 15.875 0z"/><path fill="#fff" d="M30.592 17.832c3.783-2.502 8.46-3.135 12.908-3.095 4.235.052 8.68.795 12.19 3.322 2.55 1.793 4.207 4.56 5.313 7.423 1.787 4.7 2.312 9.775 2.372 14.77.007 5.03-.22 10.17-1.885 14.962-1.115 3.26-3.237 6.155-6.037 8.165 2.014 3.265 4.07 6.505 6.084 9.77-2.532 1.167-5.057 2.342-7.592 3.505-2.158-3.56-4.305-7.128-6.47-10.682-2.928.48-5.923.443-8.865.117-3.525-.422-7.117-1.497-9.838-3.87-2.09-1.81-3.402-4.342-4.3-6.917-1.47-4.355-1.865-8.99-1.932-13.56-.035-4.94.28-9.957 1.77-14.698 1.153-3.565 3.06-7.122 6.282-9.212zm42.94-.16c2.65-.003 5.3-.003 7.95 0 .008 3.505-.002 7.008.005 10.512 3.388.005 6.775 0 10.162.002-.058 2.275-.12 4.55-.185 6.825-3.385.008-6.768-.002-10.152.005.007 5.745-.018 11.49.013 17.235.064 1.573.03 3.233.722 4.685.505 1.12 1.865 1.408 2.973 1.445 2.087-.007 4.172-.13 6.26-.167.127 2.09.25 4.182.37 6.272-4.153.698-8.51 1.532-12.636.228-1.737-.515-3.357-1.668-4.062-3.385-1.262-2.923-1.365-6.175-1.42-9.313-.005-5.667 0-11.332-.002-17-1.847-.005-3.695.002-5.543-.005-.004-2.272-.004-4.547 0-6.822 1.848-.007 3.693.002 5.54-.005.008-3.505-.001-7.008.006-10.512z"/><path fill="#41cd52" d="M40.128 21.925c2.572-.335 5.272-.245 7.707.727 1.972.78 3.647 2.308 4.532 4.242 1.358 2.933 1.878 6.17 2.14 9.368.286 4.255.246 8.55-.342 12.78-.412 2.518-1 5.17-2.705 7.155-1.73 1.992-4.397 2.848-6.957 3.047-2.7.198-5.548 0-7.986-1.277-1.422-.757-2.63-1.945-3.335-3.4-.855-1.742-1.325-3.645-1.655-5.55-.995-6.04-1.235-12.29.125-18.295.56-2.265 1.375-4.59 3.03-6.298 1.44-1.462 3.445-2.217 5.445-2.5z"/></svg>