<svg id="svg2" xmlns="http://www.w3.org/2000/svg" height="84.75pt" viewBox="0 0 115.5 84.75" width="115.5pt" version="1.1"><path id="path6" fill="#41cd52" d="m15.875 0h99.625v68.698c-5.35 5.367-10.72 10.717-16.098 16.052h-99.402v-68.902c5.27-5.303 10.585-10.566 15.875-15.848z"/><path id="path8" fill="#fff" d="m30.592 17.832c3.7825-2.5025 8.46-3.135 12.908-3.095 4.235 0.0525 8.68 0.795 12.19 3.3225 2.55 1.7925 4.2075 4.56 5.3125 7.4225 1.7875 4.7 2.3125 9.775 2.3725 14.77 0.007 5.03-0.22 10.17-1.885 14.962-1.115 3.26-3.2375 6.155-6.0375 8.165 2.015 3.265 4.07 6.505 6.085 9.77-2.5325 1.1675-5.0575 2.3425-7.5925 3.505-2.1575-3.56-4.305-7.1275-6.47-10.682-2.9275 0.48-5.9225 0.4425-8.865 0.1175-3.525-0.4225-7.1175-1.4975-9.8375-3.87-2.09-1.81-3.4025-4.3425-4.3-6.9175-1.47-4.355-1.865-8.99-1.9325-13.56-0.035-4.94 0.28-9.9575 1.77-14.698 1.1525-3.565 3.06-7.1225 6.2825-9.2125z"/><path id="path10" fill="#fff" d="m73.532 17.672c2.65-0.003 5.3-0.003 7.95 0 0.008 3.505-0.002 7.0075 0.005 10.512 3.3875 0.005 6.775 0 10.162 0.002-0.0575 2.275-0.12 4.55-0.185 6.825-3.385 0.008-6.7675-0.002-10.152 0.005 0.007 5.745-0.0175 11.49 0.0125 17.235 0.065 1.5725 0.03 3.2325 0.7225 4.685 0.505 1.12 1.865 1.4075 2.9725 1.445 2.0875-0.007 4.1725-0.13 6.26-0.1675 0.1275 2.09 0.25 4.1825 0.37 6.2725-4.1525 0.6975-8.51 1.5325-12.635 0.2275-1.7375-0.515-3.3575-1.6675-4.0625-3.385-1.2625-2.9225-1.365-6.175-1.42-9.3125-0.005-5.6675 0-11.332-0.002-17-1.8475-0.005-3.695 0.002-5.5425-0.005-0.005-2.2725-0.005-4.5475 0-6.8225 1.8475-0.007 3.6925 0.002 5.54-0.005 0.007-3.505-0.002-7.0075 0.005-10.512z"/><path id="path12" fill="#41cd52" d="m40.128 21.925c2.572-0.335 5.272-0.245 7.707 0.727 1.9725 0.78 3.6475 2.3075 4.5325 4.2425 1.3575 2.9325 1.8775 6.17 2.14 9.3675 0.285 4.255 0.245 8.55-0.3425 12.78-0.4125 2.5175-1 5.17-2.705 7.155-1.73 1.9925-4.3975 2.8475-6.9575 3.0475-2.7 0.1975-5.5475 0-7.985-1.2775-1.4225-0.7575-2.63-1.945-3.335-3.4-0.855-1.7425-1.325-3.645-1.655-5.55-0.995-6.04-1.235-12.29 0.125-18.295 0.56-2.265 1.375-4.59 3.03-6.2975 1.44-1.4625 3.445-2.2175 5.445-2.5z"/></svg>
